<svg xmlns="http://www.w3.org/2000/svg" width="25.255" height="19.639" viewBox="0 0 25.255 19.639"><path d="M12.291,7.348,4.208,14.006v7.185a.7.7,0,0,0,.7.7l4.913-.013a.7.7,0,0,0,.7-.7v-4.2a.7.7,0,0,1,.7-.7h2.806a.7.7,0,0,1,.7.7v4.193a.7.7,0,0,0,.7.7l4.911.014a.7.7,0,0,0,.7-.7V14L12.962,7.348A.534.534,0,0,0,12.291,7.348Zm12.768,4.525L21.394,8.852V2.78a.526.526,0,0,0-.526-.526H18.413a.526.526,0,0,0-.526.526V5.963L13.962,2.734a2.1,2.1,0,0,0-2.674,0L.19,11.873a.526.526,0,0,0-.07.741l1.118,1.359a.526.526,0,0,0,.741.071L12.291,5.551a.534.534,0,0,1,.671,0l10.313,8.494a.526.526,0,0,0,.741-.07l1.118-1.359a.526.526,0,0,0-.075-.742Z" transform="translate(0.001 -2.254)" fill="#2f2f31"/></svg>